<svg width="351" height="165" viewBox="0 0 351 165" fill="none" xmlns="http://www.w3.org/2000/svg">
<path d="M280.28 80.0957C271.21 79.8057 262.28 79.5257 253.35 79.2357C253.22 79.2357 253.09 79.1257 252.87 79.0257C252.85 78.5857 252.8 78.1157 252.8 77.6457C252.72 73.1557 252.63 68.6557 252.59 64.1657C252.47 52.7357 252.37 41.3057 252.25 29.8857C252.24 28.8457 252.34 27.7857 251.99 26.6957C250.41 26.3257 248.79 26.3157 247.18 26.2657C245.56 26.2157 243.94 26.1757 242.32 26.1257C241.59 25.2057 241.58 23.9057 240.63 23.1557C240.57 23.1057 240.46 23.1357 240.29 23.1257C240.29 23.3157 240.28 23.4957 240.32 23.6657C241.13 27.0457 241.25 30.4857 241.02 33.9257C240.65 39.3557 238.92 44.2957 235.62 48.6557C234.58 50.0257 233.54 51.3957 232.25 52.5557C231.83 52.9357 231.5 53.4057 231.14 53.8257C231.41 55.0457 231.93 56.0657 232.51 57.0457C233.43 58.6057 234.39 60.1557 235.33 61.7057C235.5 61.9957 235.71 62.2657 235.84 62.5657C236.96 65.1757 238.6 67.4757 240.04 69.8957C241.33 72.0757 242.66 74.2257 243.98 76.3957C244.78 77.7057 245.36 79.1157 245.89 80.5457C245.79 81.1457 245.54 81.6457 245.12 82.0357C242.99 82.4557 224.35 83.2657 221.95 83.0457C221.73 82.6457 221.47 82.1957 221.24 81.7357C219.54 78.3657 217.83 74.9957 215.92 71.7357C214.26 68.8857 212.65 66.0057 211 63.1557C210.09 61.5857 209.07 60.0857 207.91 58.6757C206.05 56.4157 203.62 55.5557 200.8 55.6657C199.52 55.7157 198.21 55.7957 196.98 56.4957C196.93 56.7757 196.83 57.0957 196.81 57.4157C196.73 59.0857 196.66 60.7557 196.62 62.4357C196.51 67.3157 196.42 72.1858 196.32 77.0658C196.32 77.2958 196.28 77.5357 196.26 77.8457C195.93 77.9357 195.62 78.0557 195.31 78.0957C194.93 78.1457 194.55 78.1357 194.16 78.1457C189.24 78.2857 184.31 78.4258 179.39 78.5658C178.78 78.5858 178.16 78.6657 177.5 78.4157C177.47 77.9657 177.41 77.5457 177.41 77.1257C177.41 75.4557 177.46 73.7757 177.44 72.1057C177.42 71.0157 177.7 70.0357 178.2 69.0857C178.92 67.7257 179.47 66.3057 179.88 64.8257C180.03 64.2957 180.18 63.7557 180.01 63.2057C179.65 63.1457 179.64 63.4057 179.57 63.5457C179.37 63.9857 179.2 64.4257 179.03 64.8757C178.05 67.4457 176.74 69.8157 174.91 71.8857C174.66 72.1757 174.41 72.4657 174.18 72.7657C170.94 76.9557 166.71 79.8457 161.97 82.0557C156.52 84.6057 150.76 85.5458 144.79 84.9958C139.26 84.4958 134.15 82.6657 129.54 79.5757C120.87 73.7657 115.51 65.6657 113.18 55.5257C112.2 51.2457 112 46.9057 112.34 42.5457C112.68 38.2757 113.62 34.1457 115.39 30.0857C115.77 29.8857 116.22 29.6257 116.7 29.4257C119.12 28.4057 121.49 27.2657 124.05 26.5957C124.56 26.4657 124.9 26.2157 124.89 25.5457C124.58 25.5157 124.31 25.4557 124.04 25.4757C121.52 25.6857 118.99 25.9257 116.47 26.1157C115.33 26.2057 114.18 26.1957 113.03 26.2257C109.35 26.3357 105.67 26.3957 101.99 26.5557C99.2703 26.6757 96.5503 26.8257 93.8503 27.2757C92.7703 27.4557 91.6603 27.5057 90.5703 27.6357C90.1903 27.6757 89.8103 27.7457 89.4603 27.8757C88.4003 28.2557 87.8303 28.9957 87.8303 30.1457C87.8303 30.9057 87.8203 31.6757 87.8303 32.4357C87.8503 33.1157 87.9703 33.7657 88.5903 34.3757C91.2103 34.2857 93.9303 34.1857 96.6503 34.1057C99.3703 34.0257 102.09 33.9657 104.78 33.8957C105.18 34.1157 105.32 34.4657 105.36 34.8557C105.46 35.9957 105.65 37.1457 105.62 38.2757C105.45 43.4457 105.65 48.6057 105.69 53.7657C105.69 54.1357 105.65 54.5057 105.63 54.9757C105.2 54.9757 104.82 55.0157 104.46 54.9757C100.51 54.5757 96.5503 54.3457 92.5803 54.2957C92.1603 54.2957 91.7303 54.2957 91.2403 54.2957C91.1403 54.6857 90.9903 54.9957 90.9803 55.3057C90.9203 58.2157 90.5903 61.1157 90.6403 64.0457C90.6803 66.4357 90.4803 68.8257 90.4603 71.2157C90.4403 75.0457 90.4803 78.8657 90.4903 82.6957C90.4903 83.7957 90.4503 84.8857 90.4303 86.0557C90.0603 86.1657 89.7603 86.2757 89.4503 86.3357C89.2203 86.3757 88.9703 86.3457 88.7303 86.3457C81.9903 86.3357 75.2503 86.3258 68.5003 86.3158C67.7803 86.3158 67.0703 86.2957 66.3503 86.2957C66.0203 86.2957 65.6703 86.3157 65.4703 86.7857C65.5403 86.9357 65.6103 87.1657 65.7503 87.3357C66.3503 88.0857 66.9403 88.8357 67.5803 89.5357C69.4103 91.5157 70.9003 93.7357 72.2703 96.0357C72.5603 96.5257 72.8403 97.0358 73.1803 97.4958C73.3203 97.6858 73.6303 97.7457 73.8703 97.8557C74.4303 97.1157 73.7703 96.5057 73.8703 95.6857C74.1203 95.3557 74.4403 94.8857 74.8203 94.4657C76.0803 93.0857 77.3703 91.7457 78.6203 90.3657C79.1403 89.7957 79.7703 89.5557 80.5103 89.4557C83.5003 89.0557 86.4403 88.4157 89.3703 87.7257C89.6003 87.6757 89.8303 87.6057 90.0603 87.5357C90.9503 87.2557 91.5103 86.7357 91.7103 85.7557C92.0003 84.3057 92.4203 82.8857 92.8003 81.4457C92.9003 81.0757 93.0203 80.7257 93.1303 80.3457C94.8703 79.5557 96.6803 79.1257 98.5303 78.8657C105.02 77.9657 111.19 79.0858 117.04 81.9958C119.28 83.1058 121.3 84.5457 123.04 86.3657C123.36 86.7057 123.63 87.1157 123.87 87.5157C123.98 87.6957 123.94 87.9657 123.98 88.2957C123.65 88.3557 123.39 88.4457 123.13 88.4557C121.89 88.4857 120.64 88.4757 119.4 88.5157C118.88 88.5257 118.35 88.5957 117.84 88.6857C117.2 88.7957 116.8 89.1957 116.74 89.8357C116.67 90.6857 116.62 91.5457 116.63 92.4057C116.64 93.4057 116.75 94.4057 116.8 95.4057C116.91 97.6957 117.01 99.9857 117.1 102.286C117.14 103.286 117.13 104.296 117.16 105.296C117.17 105.626 117.2 105.966 117.32 106.276C117.38 106.436 117.64 106.526 117.79 106.636C118.23 106.276 118.11 105.866 118.11 105.506C118.11 101.726 118.09 97.9458 118.08 94.1758C118.08 93.2158 118.05 92.2657 118.06 91.3057C118.06 90.9757 118.12 90.6457 118.14 90.4057C118.51 89.9357 118.96 89.9657 119.38 89.9557C121.39 89.8857 123.39 89.8057 125.4 89.7357C130.03 89.5657 134.67 89.4057 139.3 89.2357C139.4 89.2357 139.49 89.2357 139.59 89.2257C145.52 89.0257 151.44 88.8357 157.36 88.6157C161.85 88.4557 166.34 88.2357 170.83 88.0857C173.46 87.9957 176.09 87.9857 178.72 87.9457C178.91 87.9457 179.1 87.9857 179.25 88.0057C179.8 88.4357 180.01 89.0357 180.2 89.6257C180.77 91.3157 181.07 93.0457 181.04 94.8357C181.02 95.9757 181.07 97.1157 181.09 98.2157C181.49 98.4157 181.63 98.2357 181.66 97.9857C181.78 96.9857 181.88 95.9958 181.97 94.9958C182.38 90.7658 182.78 86.5257 183.19 82.2957C183.2 82.1557 183.26 82.0257 183.32 81.7857C183.63 81.7857 183.95 81.7357 184.26 81.7557C188.55 82.1257 192.83 82.4757 197.11 82.8857C202.29 83.3857 207.48 83.9157 212.66 84.4857C215.75 84.8257 218.83 85.2357 221.91 85.6357C224.47 85.9657 227.02 86.3357 229.58 86.6657C231.62 86.9257 233.66 87.1357 235.7 87.3857C236.98 87.5457 238.25 87.7457 239.53 87.9157C239.86 87.9557 240.2 87.9957 240.53 87.9657C241.13 87.9057 241.4 87.2557 241.01 86.7857C240.78 86.5157 240.46 86.3157 240.21 86.1057C240.35 85.6357 240.68 85.7257 240.94 85.7157C244.38 85.5757 247.82 85.4257 251.26 85.3057C256.71 85.1157 262.15 84.9357 267.6 84.7557C272.9 84.5757 278.21 84.4157 283.51 84.2257C286.38 84.1257 289.24 83.9557 292.11 83.8257C292.43 83.8057 292.76 83.8257 293.05 83.8257C293.56 85.5857 294.63 97.2657 294.59 100.596C294.59 100.916 294.48 101.236 294.41 101.626C292.76 101.826 291.15 102.026 289.54 102.216C285.41 102.686 281.28 103.146 277.15 103.626C273.21 104.096 269.28 104.576 265.34 105.086C263.31 105.346 262.46 106.756 262.55 108.276C262.63 109.606 263.38 110.516 264.72 110.716C265.19 110.786 265.67 110.786 266.15 110.786C269.64 110.766 273.13 110.726 276.62 110.696C277.09 110.696 277.57 110.616 278 110.926C278.55 111.316 278.79 111.876 278.88 112.506C279 113.356 279.11 114.216 279.14 115.076C279.23 118.426 279.29 121.766 279.35 125.116C279.35 125.496 279.32 125.876 279.3 126.266C279.27 127.116 278.79 127.576 278 127.756C276.6 128.066 275.2 128.356 273.8 128.676C271.43 129.216 269.05 129.766 266.68 130.326C266.31 130.416 265.95 130.546 265.59 130.686C264.81 130.976 264.34 131.546 264.1 132.316C264 132.636 263.92 132.976 263.92 133.296C263.93 134.536 263.92 135.786 264.04 137.016C264.13 138.016 264.72 138.516 265.73 138.666C266.01 138.706 266.3 138.726 266.59 138.706C268.97 138.506 271.36 138.366 273.73 138.076C279.33 137.386 284.91 136.626 290.5 135.896C292.44 135.646 294.39 135.386 296.33 135.166C297.27 135.056 298.22 134.886 299.19 135.166C299.5 135.696 299.55 136.276 299.55 136.836C299.54 138.746 299.5 140.656 299.45 142.566C299.42 143.666 299.35 144.766 299.33 145.856C299.33 146.176 299.29 146.536 299.75 146.776C299.83 146.636 299.96 146.496 299.98 146.356C300.17 144.886 300.42 143.426 300.51 141.946C300.62 140.036 300.61 138.126 300.65 136.206C300.65 135.776 300.64 135.346 300.59 134.916C300.52 134.276 300.15 133.866 299.5 133.766C298.84 133.666 298.17 133.596 297.51 133.506C297.23 133.466 296.96 133.406 296.63 133.346C296.6 132.966 296.55 132.646 296.56 132.326C296.7 128.456 296.84 124.586 296.99 120.716C297.09 118.136 297.23 115.556 297.31 112.976C297.45 108.816 297.56 104.656 297.68 100.506C297.8 96.3957 297.91 92.2858 298.03 88.1758C298.05 87.6058 298.13 87.0457 298.19 86.3957C300.26 85.9457 302.31 86.0657 304.35 85.8957C306.35 85.7357 308.35 85.5857 310.36 85.4757C312.41 85.3657 314.46 85.3157 316.56 85.2357C316.77 85.5857 316.98 85.9057 317.14 86.2357C320.25 92.5357 323.35 98.8357 326.45 105.146C326.62 105.486 326.77 105.836 326.97 106.166C327.14 106.446 327.41 106.486 327.78 106.376C328.18 105.286 328.02 104.136 328.13 103.016C328.25 101.876 328.32 100.726 328.4 99.5857C328.48 98.4457 328.56 97.2957 328.63 96.1557C328.7 95.0157 328.73 93.8657 328.84 92.7257C328.94 91.5957 328.86 90.4358 329.13 89.2458C329.54 89.1958 329.9 89.1157 330.27 89.1057C334.38 89.0157 338.49 88.9457 342.6 88.8457C344.65 88.7957 346.71 88.6957 348.76 88.6357C349.23 88.6257 349.69 88.6557 350.18 88.6657C350.42 89.2457 350.31 89.7757 350.28 90.2857C350.11 93.6757 349.93 97.0657 349.74 100.456C349.51 104.516 349.25 108.566 349.01 112.626C348.78 116.636 348.56 120.646 348.33 124.656C348.09 128.906 347.83 133.156 347.59 137.396C347.49 139.116 347.38 140.836 347.28 142.546C347.05 146.506 346.84 150.466 346.61 154.436C346.56 155.246 346.59 156.056 346.25 156.916C345.84 156.946 345.42 156.986 344.99 156.986C341.6 157.026 338.2 157.066 334.81 157.106C332.95 157.126 331.08 157.156 329.22 157.166C328.94 157.166 328.66 157.116 328.27 157.086C327.84 156.386 327.37 155.666 326.95 154.926C324.55 150.736 322.17 146.536 319.77 142.346C317.99 139.236 316.2 136.126 314.42 133.016C314.28 132.766 314.16 132.486 313.96 132.296C313.77 132.116 313.49 132.026 313.16 131.846C313.05 132.186 312.9 132.436 312.9 132.686C312.9 134.456 312.94 136.226 312.96 137.996C313.01 142.016 313.06 146.026 313.11 150.046C313.11 150.516 313.07 150.986 313.04 151.536C312.61 151.586 312.24 151.656 311.88 151.666C308.3 151.766 304.71 151.846 301.13 151.946C300.57 151.966 299.98 151.876 299.5 152.196C298.85 153.036 299.13 154.116 298.58 154.966C298 155.296 297.33 155.316 296.67 155.346C294.81 155.416 292.94 155.486 291.08 155.556C287.07 155.716 283.06 155.886 279.04 156.036C274.12 156.226 269.2 156.386 264.28 156.596C259.5 156.806 254.73 157.076 249.95 157.276C247.9 157.366 245.84 157.356 243.79 157.326C243.18 157.326 242.54 157.196 241.99 156.946C240.99 156.496 240.31 155.676 240.06 154.586C239.9 153.896 239.81 153.176 239.78 152.456C239.54 147.726 239.33 142.996 239.1 138.276C238.82 132.686 238.55 127.106 238.25 121.516C238.04 117.646 237.76 113.786 237.54 109.916C237.5 109.206 237.54 108.496 237.54 107.696C237.86 107.556 238.19 107.376 238.55 107.276C239.66 106.976 240.77 106.706 241.88 106.426C242.25 106.336 242.63 106.266 242.98 106.126C243.85 105.796 244.41 105.166 244.5 104.216C244.55 103.646 244.57 103.066 244.54 102.496C244.42 100.106 244.24 97.7257 244.14 95.3357C244.07 93.5257 244.09 91.7057 244.05 89.8857C244.03 89.1257 243.95 88.3657 243.86 87.6057C243.83 87.3957 243.67 87.2057 243.51 86.8757C243.32 87.1157 243.15 87.2357 243.13 87.3857C243.07 87.8557 243.04 88.3358 243.04 88.8158C243.04 92.9757 243.06 97.1357 243.07 101.296C243.07 102.206 243.07 103.106 243.07 104.086C242.77 104.156 242.5 104.266 242.24 104.276C241.38 104.276 240.52 104.266 239.66 104.226C234.36 103.996 229.06 103.766 223.76 103.536C223.47 103.526 223.19 103.506 222.9 103.496C221.61 103.456 220.97 103.956 220.75 105.256C220.62 106.006 220.56 106.776 220.47 107.536C220.23 109.576 219.98 111.616 219.74 113.656C219.5 115.696 219.25 117.736 219.02 119.776C218.68 122.716 218.34 125.666 218 128.606C217.66 131.646 217.33 134.686 217 137.726C216.67 140.716 216.35 143.716 216.02 146.706C215.77 148.936 215.52 151.166 215.26 153.406C215.2 153.926 215.24 154.476 214.76 154.836C212.75 155.186 198.49 155.206 194.85 154.726C194.23 154.376 193.88 153.826 193.84 153.116C193.76 151.826 193.65 150.536 193.67 149.256C193.71 145.196 193.83 141.126 193.87 137.066C193.94 129.176 193.96 121.286 194.02 113.396C194.04 110.046 194.1 106.706 194.15 103.356C194.15 103.076 194.15 102.796 194.15 102.476C193.56 102.116 192.95 102.056 192.34 102.016C190.72 101.916 189.09 101.826 187.47 101.726C186.66 101.676 185.85 101.596 185.04 101.546C184.72 101.526 184.4 101.566 184.13 101.576C183.93 101.916 184.03 102.136 184.26 102.256C184.6 102.426 184.95 102.566 185.31 102.696C185.75 102.856 186.21 102.986 186.74 103.156C186.54 104.786 186.57 106.406 186.05 107.826C185.59 108.236 185.15 108.216 184.72 108.216C181.8 108.266 178.89 108.286 175.97 108.356C174.2 108.396 172.44 108.516 170.7 108.876C170.37 108.946 170.05 109.036 169.73 109.126C168.33 109.516 167.71 110.646 167.77 111.946C167.95 115.576 168.2 119.196 168.43 122.826C168.53 124.446 168.64 126.066 168.75 127.696C168.98 131.276 169.2 134.856 169.44 138.426C169.67 141.816 169.94 145.196 170.16 148.586C170.33 151.066 170.48 153.546 170.59 156.036C170.63 157.026 170.68 158.056 169.94 158.996C169.17 159.206 168.32 159.266 167.47 159.346C164.71 159.606 161.95 159.876 159.19 160.146C156.91 160.366 154.62 160.566 152.34 160.776C150.48 160.946 148.63 161.146 146.77 161.296C145.83 161.376 144.88 161.516 143.95 161.346C143.61 160.886 143.73 160.386 143.72 159.926C143.66 156.726 143.62 153.516 143.56 150.316C143.47 145.396 143.37 140.466 143.26 135.546C143.1 128.376 142.91 121.206 142.75 114.036C142.72 112.776 142.25 111.716 141.44 110.786C140.79 110.036 139.89 109.886 138.98 109.796C138.55 109.756 138.12 109.796 137.69 109.796C133.58 109.756 129.47 109.716 125.35 109.686C124.79 109.686 124.2 109.566 123.56 109.886C123.69 110.076 123.77 110.346 123.93 110.396C124.38 110.546 124.86 110.616 125.33 110.696C126.98 110.986 128.65 111.176 130.26 111.586C132.06 112.046 133.82 112.676 135.58 113.276C136.39 113.556 137.17 113.926 137.81 114.426C138.13 114.916 138.04 115.406 138.04 115.876C138.08 118.746 137.9 121.606 137.6 124.466C137.16 128.616 136.32 132.686 134.96 136.626C133.1 141.996 130.52 146.986 126.83 151.356C124.97 153.556 122.91 155.546 120.55 157.206C113.17 162.366 105.12 163.816 96.4103 161.546C93.5303 160.796 90.7903 159.676 88.2203 158.176C84.1003 155.776 80.4203 152.836 77.2303 149.276C77.0703 149.096 76.9203 148.916 76.7703 148.726C76.7103 148.656 74.6203 146.206 74.5203 146.076C73.6203 144.896 72.7403 143.716 71.8303 142.496C71.9603 141.326 72.1303 140.196 72.2003 139.056C72.2703 137.936 72.6303 136.816 72.3703 135.696L71.8603 135.596C71.3903 135.826 71.3603 136.296 71.2103 136.686C69.4803 141.276 67.2403 145.586 64.2403 149.486C60.6403 154.176 56.3303 158.036 51.0003 160.696C46.6603 162.856 42.0503 164.056 37.2103 164.206C30.1903 164.416 23.8203 162.356 18.0603 158.386C11.8403 154.096 7.30024 148.396 4.27024 141.496C1.88024 136.066 0.500236 130.396 0.120236 124.456C-0.189764 119.696 0.0902364 114.996 1.07024 110.336C2.87024 101.786 6.52024 94.1457 12.4903 87.7057C16.9603 82.8857 22.2603 79.3157 28.5903 77.3657C34.9603 75.4157 41.3003 75.5157 47.6303 77.5757C50.1403 78.3957 52.5203 79.5057 54.7803 80.8557C55.3903 81.2257 55.9903 81.6357 56.6603 81.6957C57.2303 81.5657 57.4403 81.2057 57.5103 80.7557C57.5503 80.4757 57.5403 80.1857 57.5303 79.8957C57.3203 71.7257 57.1203 63.5457 56.9003 55.3757C56.7203 48.6357 56.5403 41.8957 56.3403 35.1557C56.1603 28.8957 55.9403 22.6357 55.7503 16.3757C55.6503 13.1257 55.5703 9.87577 55.5003 6.62577C55.4903 6.10577 55.4003 5.56577 55.7803 5.01577C55.9703 4.95577 56.2303 4.82577 56.5003 4.80577C59.2203 4.60577 61.9403 4.42577 64.6503 4.23577C68.1803 3.98577 71.7103 3.73577 75.2403 3.48577C76.8603 3.36577 78.4803 3.24577 80.1003 3.12577C83.7703 2.85577 87.4403 2.58577 91.1103 2.31577C94.3503 2.08577 97.6003 1.87577 100.84 1.63577C104.27 1.38577 107.7 1.12577 111.14 0.86577C112.52 0.76577 113.91 0.66577 115.29 0.57577C118.01 0.39577 120.73 0.21577 123.45 0.0457699C124.06 0.0057699 124.7 -0.12423 125.3 0.36577C125.89 1.27577 125.98 2.39577 125.99 3.47577C126.03 7.77577 126.27 12.0757 125.94 16.3857C125.82 18.0057 125.82 19.6357 125.78 21.2557C125.78 21.3857 125.84 21.5257 125.87 21.6257C126.19 21.9057 126.46 21.8157 126.62 21.5457C126.78 21.2657 126.89 20.9357 126.96 20.6157C127.39 18.4657 127.79 16.3057 128.23 14.0157C128.47 13.8157 128.77 13.5757 129.06 13.3257C132.93 9.99577 137.41 7.94577 142.42 7.13577C153.51 5.33577 162.99 8.63577 171.04 16.3357C171.77 17.0257 172.43 17.7857 173.15 18.4857C173.33 18.6657 173.62 18.7357 173.83 18.8457C174.15 18.4657 174.09 18.1157 173.9 17.8357C173.27 16.9057 173.28 15.8657 173.26 14.8057C173.22 11.2657 173.15 7.72577 173.1 4.19577C173.1 3.62577 173.02 3.04577 173.28 2.44577C173.54 2.39577 173.82 2.30577 174.09 2.29577C175.43 2.24577 176.77 2.16577 178.1 2.17577C185.75 2.20577 193.4 2.25577 201.05 2.30577C206.5 2.33577 211.95 2.37577 217.4 2.42577C219.22 2.44577 221.03 2.45577 222.83 2.76577C224.5 3.05577 226.07 3.57577 227.56 4.35577C231.02 6.15577 233.88 8.64577 236.04 11.9057C236.36 12.3857 236.68 12.8557 237.02 13.3157C237.15 13.4957 237.34 13.6257 237.62 13.8957C237.69 13.5657 237.79 13.3957 237.75 13.2457C237.65 12.7857 237.51 12.3257 237.36 11.8757C237.1 11.1357 237 10.3957 237.11 9.61577C237.2 8.97577 237.54 8.55577 238.19 8.45577C238.71 8.38577 239.23 8.32577 239.76 8.29577C245.73 7.96577 251.69 7.65577 257.66 7.32577C262.72 7.04577 267.78 6.77577 272.84 6.46577C278.04 6.14577 283.24 5.79577 288.44 5.46577C289.63 5.39577 290.83 5.36577 292.02 5.34577C292.35 5.34577 292.68 5.39577 292.91 5.41577C293.48 5.74577 293.55 6.22577 293.59 6.70577C293.68 7.89577 293.78 9.08577 293.86 10.2757C294.13 14.6657 294.19 19.0657 294.15 23.4657C294.15 23.9857 294.12 24.5057 294.1 25.1057C293.73 25.2057 293.43 25.3457 293.12 25.3557C292.36 25.3857 291.59 25.3557 290.83 25.3457C286.38 25.3057 281.94 25.2557 277.49 25.2157C277.07 25.2157 276.65 25.2757 276.25 25.3157C275.94 25.9757 275.91 26.5757 275.96 27.2057C276.37 31.7757 276.78 36.3457 277.17 40.9157C277.41 43.7257 277.61 46.5357 277.84 49.3457C278.18 53.3957 278.53 57.4457 278.87 61.4957C279.09 64.0157 279.3 66.5458 279.53 69.0658C279.78 71.8758 280.04 74.6858 280.29 77.4958C280.36 78.2958 280.48 79.0958 280.33 80.0658L280.28 80.0957ZM73.2503 100.806C72.9103 100.836 72.6203 100.806 72.3803 100.896C71.7003 101.126 71.0403 101.406 70.3703 101.666C64.9103 103.836 59.4103 105.916 54.0803 108.406C53.1703 108.826 52.2403 109.196 51.3003 109.566C51.0403 109.666 50.7603 109.696 50.4403 109.766C50.2503 109.506 50.0803 109.286 49.9203 109.056C48.2103 106.386 45.9003 104.436 42.9203 103.396C38.3703 101.806 34.2303 102.596 30.7203 105.946C28.5603 107.996 27.2103 110.596 26.3903 113.436C25.8503 115.316 25.5903 117.256 25.5303 119.236C25.4403 122.266 25.7203 125.256 26.1903 128.236C26.7103 131.526 27.6703 134.656 29.5803 137.436C30.6103 138.926 31.6203 140.426 33.2303 141.396C34.0703 141.896 34.9403 142.206 35.9103 142.326C37.2703 142.496 38.4403 141.986 39.6203 141.436C41.6103 140.516 42.6803 138.906 43.0503 136.796C43.3303 135.196 42.6303 133.846 41.1403 133.166C40.6303 132.936 40.0603 132.766 39.5103 132.676C38.8103 132.566 38.0803 132.556 37.3703 132.506C36.8503 132.466 36.3103 132.556 35.7803 132.226C35.4303 131.646 35.2803 130.936 35.1403 130.236C34.6603 127.896 34.1903 125.556 33.7403 123.206C33.3903 121.376 33.1003 119.536 32.7703 117.706C32.6503 117.036 32.6103 116.376 32.9403 115.706C33.4803 115.216 34.1903 115.116 34.9103 115.076C35.8603 115.016 36.8203 114.986 37.7803 114.986C40.2203 114.996 42.6603 115.006 45.0903 115.066C48.2403 115.146 51.4003 115.256 54.5503 115.406C59.2803 115.626 64.0003 115.886 68.7303 116.116C69.5903 116.156 70.4503 116.166 71.3103 116.156C71.5703 116.156 71.8303 116.036 72.0503 115.976C72.1303 115.406 71.7703 115.316 71.4603 115.226C70.2303 114.836 69.0003 114.456 67.7703 114.066C67.4203 113.956 67.0103 113.896 66.7803 113.396C67.2203 110.896 67.7503 108.326 68.6903 105.866C68.8503 105.436 69.1403 105.016 69.4703 104.696C70.4703 103.736 71.5203 102.826 72.5403 101.896C72.8103 101.646 73.2203 101.516 73.2603 100.826L73.2503 100.806ZM109.36 117.266C109.36 116.356 109.42 115.446 109.35 114.546C109.24 113.266 109.07 111.986 108.86 110.706C108.64 109.386 108.28 108.096 107.65 106.896C107.24 106.126 106.76 105.416 106.02 104.926C105.12 104.326 104.24 104.196 103.23 104.826C101.97 105.606 101.02 106.636 100.27 107.876C99.3703 109.356 98.6903 110.936 98.1803 112.576C96.4603 118.116 95.8603 123.786 96.2103 129.566C96.2803 130.706 96.4803 131.846 96.7303 132.966C96.9403 133.936 97.2603 134.896 97.6203 135.836C97.8403 136.406 98.1703 136.956 98.5503 137.436C99.8103 139.056 101.42 139.276 103.04 137.976C103.66 137.476 104.2 136.836 104.67 136.186C105.8 134.626 106.58 132.886 107.19 131.066C108.69 126.586 109.41 121.986 109.38 117.266H109.36ZM154.09 47.7857C153.97 46.3157 153.85 44.3557 153.65 42.4157C153.35 39.5957 152.64 36.8757 151.62 34.2257C151.19 33.1057 150.63 32.0457 149.89 31.0957C149.36 30.4057 148.74 29.8157 147.96 29.4157C147.14 29.0057 146.34 28.9657 145.49 29.3757C144.74 29.7357 144.08 30.2157 143.63 30.9057C143.16 31.6257 142.73 32.3757 142.38 33.1557C141.6 34.9157 141.2 36.7857 140.91 38.6757C140.45 41.6657 140.42 44.6757 140.63 47.6857C140.86 51.0857 141.51 54.4057 142.68 57.6257C143.15 58.9357 143.74 60.1857 144.56 61.3157C145.04 61.9757 145.58 62.5857 146.28 63.0257C147.46 63.7757 148.66 63.7657 149.77 62.9557C150.34 62.5457 150.82 61.9757 151.24 61.4057C151.95 60.4357 152.4 59.3157 152.75 58.1657C153.75 54.9457 154.1 51.6257 154.11 47.7757L154.09 47.7857ZM197.57 34.9657C198.01 35.0557 198.37 35.1957 198.73 35.1957C201.11 35.1557 203.5 35.0857 205.88 35.0357C207.15 35.0057 208.3 34.5257 209.43 34.0257C210.47 33.5657 211.23 32.7857 211.64 31.7057C211.81 31.2557 211.98 30.8157 212.11 30.3557C212.49 29.0557 212.2 27.8957 211.33 26.8857C209.95 25.2757 208.23 24.2057 206.15 23.7857C203.93 23.3357 201.7 23.2757 199.47 23.7157C198.87 23.8357 198.24 23.9357 197.75 24.4157C197.36 25.1557 197.43 25.9857 197.42 26.7857C197.42 29.2657 197.44 31.7457 197.46 34.2257C197.46 34.4157 197.51 34.5957 197.56 34.9757L197.57 34.9657Z" fill="black"/>
</svg>
